{
  "asset": {
    "version": "2.0",
    "generator": "THREE.GLTFExporter"
  },
  "scenes": [
    {
      "nodes": [
        0
      ]
    }
  ],
  "scene": 0,
  "nodes": [
    {
      "children": [
        14
      ],
      "matrix": [
        0.01,
        0,
        0,
        0,
        0,
        0.01,
        0,
        0,
        0,
        0,
        0.01,
        0,
        0,
        0,
        0,
        1
      ]
    },
    {
      "matrix": [
        0.9997857368416735,
        -5.1594802629665714e-8,
        0.02069976830665736,
        0,
        0.0006355727678235854,
        0.9995285870484414,
        -0.030695271951932144,
        0,
        -0.02069000858406684,
        0.030701851295054,
        0.9993144249293351,
        0,
        -457.4782124375329,
        86.9078344508693,
        999.3143474106457,
        1
      ],
      "name": "Camera",
      "camera": 0
    },
    {
      "matrix": [
        1.5384615384615599,
        0,
        0,
        0,
        0,
        1.4587923486512904,
        0.48866019772629543,
        0,
        0,
        -0.48866019772628894,
        1.4587923486513095,
        0,
        0.3571428571428703,
        358.92857142858065,
        17.259883172016853,
        0.9999999999999998
      ],
      "name": "Boolean 2",
      "mesh": 0
    },
    {
      "matrix": [
        1.0000000000000138,
        0,
        0,
        0,
        0,
        1,
        0,
        0,
        0,
        0,
        1.0000000000000138,
        0,
        0,
        0.5,
        17.531148600241472,
        1
      ],
      "name": "Place your image here 2",
      "mesh": 1
    },
    {
      "matrix": [
        1.4285714285714481,
        0,
        0,
        0,
        0,
        -1.428571428571465,
        -4.996003610813204e-16,
        0,
        0,
        6.661338147750939e-16,
        -1.4285714285714481,
        0,
        4.32986979603811e-15,
        -1.1457501614131615e-13,
        18.073910477889267,
        0.9999999999999998
      ],
      "name": "Front",
      "mesh": 2
    },
    {
      "matrix": [
        1.4285714285714481,
        0,
        0,
        0,
        0,
        1.4285714285714648,
        0,
        0,
        0,
        0,
        1.4285714285714481,
        0,
        5.0753052554293566e-15,
        -2.0301221021717663e-14,
        1.9450000286102553,
        0.9999999999999996
      ],
      "name": "Body",
      "mesh": 3
    },
    {
      "matrix": [
        0.9999999999999862,
        0,
        0,
        0,
        0,
        1,
        0,
        0,
        0,
        0,
        0.9999999999999862,
        0,
        0,
        0,
        -1.945000028610229,
        1
      ],
      "name": "Corpus",
      "children": [
        2,
        3,
        4,
        5
      ]
    },
    {
      "matrix": [
        0.65,
        0,
        0,
        0,
        0,
        0.47907998122532797,
        -0.43929758887244,
        0,
        0,
        0.43929758887244,
        0.47907998122532797,
        0,
        126.48328196901544,
        492.97015103447654,
        -254.24119823671623,
        0.9999999999999996
      ],
      "name": "Phone body",
      "children": [
        6
      ]
    },
    {
      "matrix": [
        2.6519883942083347,
        -1.9342868367410273,
        0.7176990944643131,
        0,
        2.063142640968923,
        2.4863555918257143,
        -0.9225390582588704,
        0,
        7.863233123733022e-16,
        1.1688328812144424,
        3.1501475673042068,
        0,
        -181.59205977383706,
        8.780281783826792,
        -12.298953897245836,
        0.9999999999999812
      ],
      "name": "hand",
      "mesh": 4
    },
    {
      "matrix": [
        1,
        0,
        0,
        0,
        0,
        0.8987940462991671,
        0.43837114678907757,
        0,
        0,
        -0.43837114678907757,
        0.8987940462991671,
        0,
        -127.79703686041047,
        -549.1580871653047,
        290.8808563713884,
        1
      ],
      "name": "phone_hand",
      "children": [
        7,
        8
      ]
    },
    {
      "matrix": [
        0.9597182395946615,
        0,
        0.28096423364785056,
        0,
        0,
        1,
        0,
        0,
        -0.28096423364785056,
        0,
        0.9597182395946615,
        0,
        1.797036860410472,
        -0.8419128346953073,
        -215.25498146812754,
        1
      ],
      "name": "Phone",
      "children": [
        9
      ]
    },
    {
      "matrix": [
        0.6340441555495687,
        0,
        -0.7732968439179319,
        0,
        0,
        1,
        0,
        0,
        0.7732968439179319,
        0,
        0.6340441555495687,
        0,
        0,
        0,
        0,
        1
      ],
      "name": "Directional Light",
      "extensions": {
        "KHR_lights_punctual": {
          "light": 0
        }
      }
    },
    {
      "matrix": [
        0.9289834459704833,
        1.734723475976807e-18,
        0.3701212735209988,
        0,
        0.011897575772615967,
        0.9994832135706385,
        -0.02986224173172971,
        0,
        -0.36992999986962516,
        0.03214507412511904,
        0.9285033599325043,
        0,
        -840.5116717408551,
        73.03408295524115,
        2109.6267117849698,
        1
      ],
      "camera": 1
    },
    {
      "matrix": [
        1,
        0,
        0,
        0,
        0,
        1,
        0,
        0,
        0,
        0,
        1,
        0,
        0,
        1,
        0,
        1
      ],
      "name": "Default Ambient Light"
    },
    {
      "name": "Scene",
      "children": [
        1,
        10,
        11,
        12,
        13
      ]
    }
  ],
  "cameras": [
    {
      "type": "perspective",
      "perspective": {
        "aspectRatio": 1.9628865979381442,
        "yfov": 0.7853981633974483,
        "zfar": 100000,
        "znear": 70
      },
      "name": "Camera"
    },
    {
      "type": "perspective",
      "perspective": {
        "aspectRatio": 1.9628865979381442,
        "yfov": 0.7853981633974483,
        "zfar": 100000,
        "znear": 5
      }
    }
  ],
  "bufferViews": [
    {
      "buffer": 0,
      "byteOffset": 0,
      "byteLength": 23472,
      "target": 34962,
      "byteStride": 12
    },
    {
      "buffer": 0,
      "byteOffset": 23472,
      "byteLength": 23472,
      "target": 34962,
      "byteStride": 12
    },
    {
      "buffer": 0,
      "byteOffset": 46944,
      "byteLength": 7872,
      "target": 34962,
      "byteStride": 12
    },
    {
      "buffer": 0,
      "byteOffset": 54816,
      "byteLength": 7872,
      "target": 34962,
      "byteStride": 12
    },
    {
      "buffer": 0,
      "byteOffset": 62688,
      "byteLength": 5248,
      "target": 34962,
      "byteStride": 8
    },
    {
      "buffer": 0,
      "byteOffset": 67936,
      "byteLength": 7824,
      "target": 34963
    },
    {
      "buffer": 0,
      "byteOffset": 75760,
      "byteLength": 47928,
      "target": 34962,
      "byteStride": 12
    },
    {
      "buffer": 0,
      "byteOffset": 123688,
      "byteLength": 47928,
      "target": 34962,
      "byteStride": 12
    },
    {
      "buffer": 0,
      "byteOffset": 171616,
      "byteLength": 31952,
      "target": 34962,
      "byteStride": 8
    },
    {
      "buffer": 0,
      "byteOffset": 203568,
      "byteLength": 86544,
      "target": 34963
    },
    {
      "buffer": 0,
      "byteOffset": 290112,
      "byteLength": 237216,
      "target": 34962,
      "byteStride": 12
    },
    {
      "buffer": 0,
      "byteOffset": 527328,
      "byteLength": 237216,
      "target": 34962,
      "byteStride": 12
    },
    {
      "buffer": 0,
      "byteOffset": 764544,
      "byteLength": 129168,
      "target": 34963
    },
    {
      "buffer": 0,
      "byteOffset": 893712,
      "byteLength": 101376,
      "target": 34962,
      "byteStride": 12
    },
    {
      "buffer": 0,
      "byteOffset": 995088,
      "byteLength": 101376,
      "target": 34962,
      "byteStride": 12
    },
    {
      "buffer": 0,
      "byteOffset": 1096464,
      "byteLength": 50688,
      "target": 34963
    }
  ],
  "buffers": [
    {
      "byteLength": 1147152,
      "uri": "data:application/octet-stream;base64,"
    }
  ],
  "accessors": [
    {
      "bufferView": 0,
      "componentType": 5126,
      "count": 1956,
      "max": [
        32.34334945678711,
        9.320537567138672,
        3.7580182552337646
      ],
      "min": [
        -32.26785659790039,
        -8.879673957824707,
        -3.9036340713500977
      ],
      "type": "VEC3"
    },
    {
      "bufferView": 1,
      "componentType": 5126,
      "count": 1956,
      "max": [
        0.9999488592147827,
        0.9481664896011353,
        0.9482150077819824
      ],
      "min": [
        -0.9999488592147827,
        -0.9481664896011353,
        -0.9482150077819824
      ],
      "type": "VEC3"
    },
    {
      "bufferView": 2,
      "componentType": 5126,
      "count": 656,
      "max": [
        186,
        389,
        1
      ],
      "min": [
        -186,
        -389,
        0
      ],
      "type": "VEC3"
    },
    {
      "bufferView": 3,
      "componentType": 5126,
      "count": 656,
      "max": [
        1,
        1,
        1
      ],
      "min": [
        -1,
        -1,
        -1
      ],
      "type": "VEC3"
    },
    {
      "bufferView": 4,
      "componentType": 5126,
      "count": 656,
      "max": [
        1,
        1
      ],
      "min": [
        0,
        0
      ],
      "type": "VEC2"
    },
    {
      "bufferView": 5,
      "componentType": 5125,
      "count": 1956,
      "max": [
        655
      ],
      "min": [
        0
      ],
      "type": "SCALAR"
    },
    {
      "bufferView": 6,
      "componentType": 5126,
      "count": 3994,
      "max": [
        136,
        278.5,
        10
      ],
      "min": [
        -136,
        -278.5,
        0
      ],
      "type": "VEC3"
    },
    {
      "bufferView": 7,
      "componentType": 5126,
      "count": 3994,
      "max": [
        1,
        1,
        1
      ],
      "min": [
        -1,
        -1,
        -1
      ],
      "type": "VEC3"
    },
    {
      "bufferView": 8,
      "componentType": 5126,
      "count": 3994,
      "max": [
        1,
        1
      ],
      "min": [
        0,
        0
      ],
      "type": "VEC2"
    },
    {
      "bufferView": 9,
      "componentType": 5125,
      "count": 21636,
      "max": [
        3993
      ],
      "min": [
        0
      ],
      "type": "SCALAR"
    },
    {
      "bufferView": 10,
      "componentType": 5126,
      "count": 19768,
      "max": [
        138,
        281,
        11
      ],
      "min": [
        -138,
        -281,
        -11
      ],
      "type": "VEC3"
    },
    {
      "bufferView": 11,
      "componentType": 5126,
      "count": 19768,
      "max": [
        0.9999999403953552,
        0.9993593096733093,
        0.9999999403953552
      ],
      "min": [
        -0.9999998807907104,
        -1,
        -0.9999999403953552
      ],
      "type": "VEC3"
    },
    {
      "bufferView": 12,
      "componentType": 5125,
      "count": 32292,
      "max": [
        19767
      ],
      "min": [
        0
      ],
      "type": "SCALAR"
    },
    {
      "bufferView": 13,
      "componentType": 5126,
      "count": 8448,
      "max": [
        36.518985748291016,
        238.3562469482422,
        26.34853744506836
      ],
      "min": [
        -74.46530151367188,
        -11.612776756286621,
        -53.01034164428711
      ],
      "type": "VEC3"
    },
    {
      "bufferView": 14,
      "componentType": 5126,
      "count": 8448,
      "max": [
        0.9992846846580505,
        0.9981683492660522,
        0.9998162388801575
      ],
      "min": [
        -0.9999764561653137,
        -0.9999468326568604,
        -0.9999942183494568
      ],
      "type": "VEC3"
    },
    {
      "bufferView": 15,
      "componentType": 5125,
      "count": 12672,
      "max": [
        8447
      ],
      "min": [
        0
      ],
      "type": "SCALAR"
    }
  ],
  "meshes": [
    {
      "primitives": [
        {
          "mode": 4,
          "attributes": {
            "POSITION": 0,
            "NORMAL": 1
          },
          "extras": {
            "parameters": {
              "width": 64.6112060546875,
              "height": 18.200210571289062,
              "depth": 7.661652088165283
            }
          }
        }
      ]
    },
    {
      "primitives": [
        {
          "mode": 4,
          "attributes": {
            "POSITION": 2,
            "NORMAL": 3,
            "TEXCOORD_0": 4
          },
          "extras": {
            "shape": {
              "points": [
                -186,
                389,
                -186,
                389,
                -186,
                389,
                52,
                186,
                389,
                186,
                389,
                186,
                389,
                52,
                186,
                -389,
                186,
                -389,
                186,
                -389,
                52,
                -186,
                -389,
                -186,
                -389,
                -186,
                -389,
                52
              ],
              "shapeHoles": [],
              "isClosed": true,
              "roundness": 52
            },
            "parameters": {
              "width": 372,
              "depth": 1,
              "cornerRadius": [
                52,
                52,
                52,
                52
              ],
              "cornerType": 1,
              "extrudeBevelSize": 0,
              "extrudeBevelSegments": 1,
              "extrudeDepth": 0,
              "height": 778,
              "surfaceMaxCount": 100,
              "type": "RectangleGeometry"
            },
            "ui": {
              "enabledIndieCorners": false
            },
            "type": "RectangleGeometry"
          },
          "indices": 5
        }
      ]
    },
    {
      "primitives": [
        {
          "mode": 4,
          "attributes": {
            "POSITION": 6,
            "NORMAL": 7,
            "TEXCOORD_0": 8
          },
          "extras": {
            "shape": {
              "points": [
                -136,
                278.5,
                -136,
                278.5,
                -136,
                278.5,
                44,
                136,
                278.5,
                136,
                278.5,
                136,
                278.5,
                44,
                136,
                -278.5,
                136,
                -278.5,
                136,
                -278.5,
                44,
                -136,
                -278.5,
                -136,
                -278.5,
                -136,
                -278.5,
                44
              ],
              "shapeHoles": [],
              "isClosed": true,
              "roundness": 44
            },
            "parameters": {
              "width": 272,
              "depth": 10,
              "cornerRadius": [
                44,
                44,
                44,
                44
              ],
              "cornerType": 1,
              "extrudeBevelSize": 2,
              "extrudeBevelSegments": 10,
              "extrudeDepth": 0,
              "height": 557,
              "surfaceMaxCount": 100,
              "type": "RectangleGeometry"
            },
            "ui": {
              "enabledIndieCorners": false
            },
            "type": "RectangleGeometry"
          },
          "indices": 9
        }
      ]
    },
    {
      "primitives": [
        {
          "mode": 4,
          "attributes": {
            "POSITION": 10,
            "NORMAL": 11
          },
          "extras": {
            "type": "SubdivGeometry",
            "parameters": {
              "width": 276,
              "height": 562,
              "depth": 22
            }
          },
          "indices": 12
        }
      ]
    },
    {
      "primitives": [
        {
          "mode": 4,
          "attributes": {
            "POSITION": 13,
            "NORMAL": 14
          },
          "extras": {
            "type": "SubdivGeometry",
            "parameters": {
              "width": 119.97048950195312,
              "height": 259.3774814605713,
              "depth": 85.19586563110352
            }
          },
          "indices": 15
        }
      ]
    }
  ],
  "extensions": {
    "KHR_lights_punctual": {
      "lights": [
        {
          "name": "Directional Light",
          "color": [
            1,
            1,
            1
          ],
          "intensity": 0.7,
          "type": "directional"
        }
      ]
    }
  },
  "extensionsUsed": [
    "KHR_lights_punctual"
  ]
}